<svg width="24" height="24" viewBox="0 0 24 24" fill="none" xmlns="http://www.w3.org/2000/svg">
<path fill-rule="evenodd" clip-rule="evenodd" d="M12 0C5.3726 0 1.52588e-05 5.37258 1.52588e-05 12C1.52588e-05 18.6274 5.3726 24 12 24C18.6274 24 24 18.6274 24 12C24 5.37258 18.6274 0 12 0ZM9.36164 5.63868C10.0443 5.60761 10.2625 5.60001 12.0006 5.60001H11.9986C13.7373 5.60001 13.9546 5.60761 14.6373 5.63868C15.3186 5.66988 15.784 5.77774 16.192 5.93601C16.6133 6.09935 16.9693 6.31802 17.3253 6.67402C17.6813 7.02976 17.9 7.38683 18.064 7.80776C18.2213 8.2147 18.3293 8.67977 18.3613 9.36111C18.392 10.0438 18.4 10.2619 18.4 12.0001C18.4 13.7382 18.392 13.9558 18.3613 14.6385C18.3293 15.3196 18.2213 15.7848 18.064 16.1919C17.9 16.6127 17.6813 16.9697 17.3253 17.3255C16.9697 17.6815 16.6132 17.9007 16.1924 18.0641C15.7852 18.2224 15.3196 18.3303 14.6382 18.3615C13.9556 18.3925 13.7381 18.4001 11.9998 18.4001C10.2618 18.4001 10.0438 18.3925 9.36111 18.3615C8.6799 18.3303 8.2147 18.2224 7.80749 18.0641C7.38682 17.9007 7.02975 17.6815 6.67415 17.3255C6.31828 16.9697 6.09961 16.6127 5.93601 16.1917C5.77787 15.7848 5.67001 15.3197 5.63867 14.6384C5.60774 13.9557 5.6 13.7382 5.6 12.0001C5.6 10.2619 5.608 10.0437 5.63854 9.36098C5.66921 8.67991 5.77721 8.2147 5.93587 7.80763C6.09988 7.38683 6.31855 7.02976 6.67455 6.67402C7.03029 6.31815 7.38736 6.09948 7.80829 5.93601C8.21523 5.77774 8.6803 5.66988 9.36164 5.63868Z" fill="white"/>
<path fill-rule="evenodd" clip-rule="evenodd" d="M11.4265 6.75331C11.538 6.75313 11.6579 6.75319 11.7873 6.75325L12.0006 6.75331C13.7094 6.75331 13.912 6.75944 14.5868 6.79011C15.2108 6.81864 15.5494 6.92291 15.7751 7.01051C16.0737 7.12651 16.2867 7.26518 16.5105 7.48918C16.7345 7.71319 16.8732 7.92652 16.9895 8.22519C17.0771 8.45053 17.1815 8.7892 17.2099 9.4132C17.2405 10.0879 17.2472 10.2905 17.2472 11.9986C17.2472 13.7066 17.2405 13.9093 17.2099 14.5839C17.1813 15.2079 17.0771 15.5466 16.9895 15.7719C16.8735 16.0706 16.7345 16.2833 16.5105 16.5071C16.2865 16.7311 16.0739 16.8698 15.7751 16.9858C15.5497 17.0738 15.2108 17.1778 14.5868 17.2064C13.9121 17.237 13.7094 17.2437 12.0006 17.2437C10.2917 17.2437 10.0891 17.237 9.41445 17.2064C8.79045 17.1776 8.45178 17.0733 8.22604 16.9857C7.92737 16.8697 7.71403 16.731 7.49003 16.507C7.26603 16.283 7.12736 16.0702 7.01109 15.7714C6.92349 15.5461 6.81909 15.2074 6.79069 14.5834C6.76002 13.9087 6.75389 13.706 6.75389 11.997C6.75389 10.2879 6.76002 10.0863 6.79069 9.4116C6.81923 8.7876 6.92349 8.44893 7.01109 8.22332C7.12709 7.92465 7.26603 7.71132 7.49003 7.48732C7.71403 7.26331 7.92737 7.12465 8.22604 7.00838C8.45164 6.92038 8.79045 6.81638 9.41445 6.78771C10.0049 6.76104 10.2337 6.75304 11.4265 6.75171V6.75331ZM15.4169 7.81601C14.9929 7.81601 14.6489 8.15962 14.6489 8.58375C14.6489 9.00776 14.9929 9.35176 15.4169 9.35176C15.8409 9.35176 16.1849 9.00776 16.1849 8.58375C16.1849 8.15975 15.8409 7.81575 15.4169 7.81575V7.81601ZM8.71391 12C8.71391 10.185 10.1855 8.71339 12.0005 8.71331C13.8156 8.71331 15.2868 10.1849 15.2868 12C15.2868 13.8151 13.8157 15.2861 12.0006 15.2861C10.1855 15.2861 8.71391 13.8151 8.71391 12Z" fill="white"/>
<path d="M12.0006 9.8667C13.1788 9.8667 14.134 10.8218 14.134 12.0001C14.134 13.1782 13.1788 14.1334 12.0006 14.1334C10.8223 14.1334 9.86725 13.1782 9.86725 12.0001C9.86725 10.8218 10.8223 9.8667 12.0006 9.8667Z" fill="white"/>
</svg>
