<svg width="238" height="46" viewBox="0 0 238 46" fill="none" xmlns="http://www.w3.org/2000/svg">
<g clip-path="url(#clip0_1_41)">
<path d="M11.2805 23.48C12.0219 23.48 12.7634 22.9832 13.0105 22.1966C13.2577 21.3272 12.7222 20.2922 11.816 20.0438C6.46096 18.4292 3.74227 15.1586 4.15419 11.06C4.56611 7.0856 7.8615 3.8564 11.5276 3.5666C14.4111 3.3182 16.6766 4.022 18.3243 5.6366C19.6837 6.9614 20.5075 8.99 20.4251 10.439H20.4663V10.4804H20.4251C20.4251 11.3912 21.1254 12.2606 22.0728 12.302C23.0203 12.3434 23.9265 11.6396 23.9677 10.6874C24.0913 8.162 22.7731 5.0984 20.7959 3.1112C18.3243 0.7928 15.029 -0.2422 11.2393 0.0475996C5.88426 0.4202 1.27073 5.1398 0.652842 10.7288C0.446881 12.8402 0.488073 20.3336 10.8685 23.4386C10.9509 23.4386 11.0745 23.48 11.2805 23.48Z" fill="#0044FF"/>
<path d="M11.6924 37.0178C13.5872 37.0178 15.4821 36.6452 17.2122 35.9828C21.7021 34.2026 24.7916 30.311 25.2859 25.757C25.5742 22.652 24.7092 19.754 22.7731 17.5184C20.7959 15.2414 17.9536 13.958 14.823 13.8338C13.9168 13.7924 13.0517 14.5376 13.0106 15.4898C12.9708 16.4491 13.6606 17.2927 14.5981 17.3497L14.6577 17.3516L14.6582 17.3528C16.965 17.477 18.8599 18.3464 20.1368 19.7954C21.3726 21.2858 21.9905 23.273 21.7845 25.4258C21.4138 28.655 19.2718 31.346 15.894 32.7122C11.6512 34.3682 6.83171 33.3746 2.91844 29.9798H2.87725L2.91844 29.9384C2.17698 29.3588 1.06478 29.4002 0.446899 30.1454C-0.212178 30.8492 -0.129793 31.967 0.611668 32.6294C3.82467 35.486 7.69674 37.0178 11.6924 37.0178Z" fill="#0044FF"/>
<path d="M58.1505 36.0242C67.7483 36.0242 75.5748 28.1582 75.5748 18.512C75.5748 8.86582 67.7483 0.999817 58.1505 0.999817C48.5527 0.999817 40.7261 8.86582 40.7261 18.512C40.7261 28.1582 48.5527 36.0242 58.1505 36.0242Z" fill="#0044FF"/>
<path d="M58.1505 32.4638C50.4887 32.4638 44.2275 26.2124 44.2275 18.512C44.2275 10.7702 50.4475 4.51883 58.1505 4.51883C65.8534 4.51883 72.0735 10.7702 72.0735 18.512C72.0735 26.2124 65.8122 32.4638 58.1505 32.4638Z" fill="#FFB700"/>
<path d="M58.1505 23.1074C61.1575 23.1074 63.5878 20.6648 63.5878 17.6426C63.5878 14.6618 61.1575 12.2192 58.1505 12.2192C55.1434 12.2192 52.7131 14.6618 52.7131 17.6426C52.7131 20.6648 55.1434 23.1074 58.1505 23.1074Z" fill="#FF820D"/>
<path d="M58.1505 19.5884C57.0795 19.5884 56.2556 18.719 56.2556 17.6426C56.2556 16.5662 57.0795 15.7382 58.1505 15.7382C59.2215 15.7382 60.0865 16.6076 60.0865 17.6426C60.0865 18.719 59.2215 19.5884 58.1505 19.5884Z" fill="white"/>
<path d="M92.2714 36.7694C93.26 36.7694 94.0015 35.9414 94.0015 34.9892L94.0009 4.18013L94.0941 4.16287C97.0528 3.62154 103.828 2.74801 107.966 6.0506C110.437 7.955 111.632 11.1428 111.549 15.6554C111.51 16.5348 112.238 17.3756 113.141 17.4325L113.197 17.4345V17.4356C114.186 17.477 115.01 16.6904 115.051 15.7382C115.174 10.1492 113.527 5.9264 110.149 3.2354C103.476 -1.981 92.5598 0.834203 91.7771 1.0826C91.0357 1.2896 90.5002 1.9934 90.5002 2.78V34.9892C90.5002 35.9828 91.2828 36.7694 92.2714 36.7694Z" fill="#0044FF"/>
<path d="M91.9808 9.96981C92.9694 9.96981 93.7109 10.7978 93.7109 11.75L94.0009 25.7917L94.0941 25.809C97.0528 26.3503 103.828 27.2239 107.966 23.9213C110.437 22.0169 111.632 18.8291 111.549 14.3165C111.51 13.4371 112.238 12.5963 113.141 12.5393L113.197 12.5374C114.186 12.4949 115.01 13.2815 115.051 14.2337C115.174 19.8227 113.527 24.0455 110.149 26.7365C103.476 31.9529 92.5598 29.1377 91.7771 28.8893C91.0357 28.6823 90.5002 27.9785 90.5002 27.1919L90.8503 11.75C90.8503 10.7564 90.9922 9.96981 91.9808 9.96981Z" fill="#0044FF"/>
<path d="M148.22 15.1172C149.208 15.1172 149.991 14.3306 149.991 13.337V2.0762C149.991 1.0826 149.167 0.337402 148.22 0.337402H132.278C131.331 0.337402 130.548 1.124 130.548 2.0762V13.337C130.548 14.2892 131.29 15.1172 132.278 15.1172H148.22Z" fill="#0044FF"/>
<path d="M146.49 11.5982H134.05V3.85641H146.49V11.5982Z" fill="#87FF74"/>
<path d="M148.22 35.4446C149.167 35.4446 149.991 34.6994 149.991 33.7058V22.445C149.991 21.4514 149.208 20.6648 148.22 20.6648H132.278C131.29 20.6648 130.548 21.4928 130.548 22.445V33.7058C130.548 34.658 131.331 35.4446 132.278 35.4446H148.22Z" fill="#0044FF"/>
<path d="M146.49 31.9256H134.05V24.2252H146.49V31.9256Z" fill="#87FF74"/>
<path d="M166.646 36.107C167.594 36.107 168.377 35.3204 168.377 34.3682V2.0762C168.377 1.124 167.594 0.337402 166.646 0.337402C165.699 0.337402 164.875 1.0826 164.875 2.0762V34.3682C164.875 35.3618 165.699 36.107 166.646 36.107Z" fill="#0044FF"/>
<path d="M206.534 36.107C207.482 36.107 208.306 35.3618 208.306 34.3682C208.306 33.3746 207.523 32.588 206.534 32.588H187.256V3.8564H206.534C207.523 3.8564 208.306 3.0698 208.306 2.0762C208.306 1.0826 207.482 0.337402 206.534 0.337402H185.526C184.579 0.337402 183.755 1.0826 183.755 2.0762V34.3682C183.755 35.3618 184.579 36.107 185.526 36.107H206.534Z" fill="#0044FF"/>
<path d="M201.797 16.4834C202.745 16.4834 203.527 15.6968 203.527 14.7446C203.527 13.7924 202.786 12.9644 201.797 12.9644H192.035C191.046 12.9644 190.263 13.751 190.263 14.7446C190.263 15.7382 191.087 16.4834 192.035 16.4834H201.797Z" fill="#FF820D"/>
<path d="M201.797 23.48C202.786 23.48 203.527 22.652 203.527 21.6998C203.527 20.7476 202.745 19.961 201.797 19.961H192.035C191.087 19.961 190.263 20.7062 190.263 21.6998C190.263 22.6934 191.046 23.48 192.035 23.48H201.797Z" fill="#FF820D"/>
<path d="M228.006 36.107C228.953 36.107 229.777 35.3618 229.777 34.3682V2.0762C229.777 1.0826 228.953 0.337402 228.006 0.337402C227.058 0.337402 226.276 1.124 226.276 2.0762V34.3682C226.276 35.3204 227.058 36.107 228.006 36.107Z" fill="#0044FF"/>
<path d="M228.006 45.6704C230.601 45.6704 232.743 44.9666 234.308 43.559C237.094 41.1592 237.15 37.5229 237.151 36.8685V24.9704C237.151 24.0182 236.368 23.2316 235.42 23.2316C234.473 23.2316 233.649 23.9768 233.649 24.9704L233.65 36.9319C233.652 37.2548 233.621 39.5162 232.043 40.9094C230.683 42.11 228.459 42.4412 225.328 41.8616C224.415 41.7019 223.501 42.2736 223.289 43.1685L223.276 43.2347L223.269 43.2278C223.063 44.18 223.722 45.1736 224.669 45.3392C225.905 45.5462 227.017 45.6704 228.006 45.6704Z" fill="#FFB700"/>
</g>
<defs>
<clipPath id="clip0_1_41">
<rect width="238" height="46" fill="white"/>
</clipPath>
</defs>
</svg>
