<svg width="24" height="24" viewBox="0 0 24 24" fill="none" xmlns="http://www.w3.org/2000/svg">
<path fill-rule="evenodd" clip-rule="evenodd" d="M12 0C5.37257 0 -1.52588e-05 5.37258 -1.52588e-05 12C-1.52588e-05 18.6274 5.37257 24 12 24C18.6274 24 24 18.6274 24 12C24 5.37258 18.6274 0 12 0ZM11.6658 10.169L11.6406 9.75376C11.565 8.67756 12.2282 7.69457 13.2774 7.31324C13.6635 7.17766 14.3182 7.16071 14.7463 7.27935C14.9142 7.33019 15.2331 7.49967 15.4597 7.6522L15.871 7.93185L16.3243 7.78779C16.5761 7.71152 16.9119 7.58441 17.063 7.49967C17.2056 7.42341 17.3316 7.38104 17.3316 7.40646C17.3316 7.55052 17.021 8.04201 16.7608 8.31318C16.4082 8.69451 16.509 8.7284 17.2224 8.47418C17.6505 8.33013 17.6589 8.33013 17.575 8.49113C17.5246 8.57587 17.2644 8.87246 16.9874 9.14363C16.5174 9.6097 16.4922 9.66055 16.4922 10.0504C16.4922 10.652 16.2068 11.9062 15.9214 12.5926C15.3926 13.8806 14.2594 15.211 13.1263 15.8805C11.5315 16.8211 9.40785 17.0584 7.61999 16.5076C7.02403 16.3211 5.99999 15.8466 5.99999 15.7618C5.99999 15.7364 6.31056 15.7025 6.68828 15.694C7.47729 15.6771 8.2663 15.4568 8.9378 15.067L9.39107 14.7958L8.87065 14.6178C8.132 14.3636 7.4689 13.7789 7.30102 13.2281C7.25066 13.0502 7.26745 13.0417 7.7375 13.0417L8.22434 13.0332L7.81304 12.8383C7.3262 12.5926 6.88134 12.1773 6.6631 11.7536C6.50362 11.4486 6.30217 10.6774 6.36092 10.6181C6.37771 10.5927 6.55398 10.6435 6.75543 10.7113C7.3346 10.9232 7.41014 10.8723 7.07439 10.5164C6.44486 9.8724 6.2518 8.91483 6.55398 8.00811L6.69667 7.60136L7.25066 8.15217C8.38382 9.26227 9.71842 9.92324 11.2461 10.1181L11.6658 10.169Z" fill="white"/>
</svg>
